<svg xmlns="http://www.w3.org/2000/svg" version="1.1" xmlns:xlink="http://www.w3.org/1999/xlink" viewBox="0 0 200 200"><rect width="200" height="200" fill="url('#gradient')"></rect><defs><linearGradient id="gradient" gradientTransform="rotate(47 0.5 0.5)"><stop offset="0%" stop-color="#353664"></stop><stop offset="100%" stop-color="#211c36"></stop></linearGradient></defs><g><g fill="#fffb00" transform="matrix(3.4603489439853075,0,0,3.4603489439853075,4.285614892396509,125.41989528987034)" stroke="#ffffff" stroke-width="0"><path d="M10.03-8.30L10.03-5.66L4.50-5.66L4.50 0L1.07 0L1.07-14.22L10.59-14.22L10.59-11.57L4.50-11.57L4.50-8.30L10.03-8.30ZM15.33-10.57L15.33 0L12.03 0L12.03-10.57L15.33-10.57ZM11.84-13.29L11.84-13.29Q11.84-13.99 12.34-14.44Q12.85-14.89 13.66-14.89Q14.47-14.89 14.98-14.44Q15.49-13.99 15.49-13.29Q15.49-12.59 14.98-12.14Q14.47-11.69 13.66-11.69Q12.85-11.69 12.34-12.14Q11.84-12.59 11.84-13.29ZM17.90-13.19L21.19-13.19L21.19-10.57L22.93-10.57L22.93-8.28L21.19-8.28L21.19-3.45Q21.19-2.85 21.41-2.62Q21.62-2.38 22.26-2.38L22.26-2.38Q22.74-2.38 23.08-2.44L23.08-2.44L23.08-0.09Q22.19 0.20 21.22 0.20L21.22 0.20Q19.52 0.20 18.71-0.61Q17.90-1.41 17.90-3.04L17.90-3.04L17.90-8.28L16.55-8.28L16.55-10.57L17.90-10.57L17.90-13.19ZM29.99-4.82L27.80-4.82L27.80 0L24.38 0L24.38-14.22L30.05-14.22Q31.68-14.22 32.93-13.62Q34.19-13.02 34.88-11.91Q35.57-10.80 35.57-9.39L35.57-9.39Q35.57-7.31 34.08-6.07Q32.59-4.82 29.99-4.82L29.99-4.82ZM27.80-11.57L27.80-7.47L30.05-7.47Q31.04-7.47 31.57-7.97Q32.09-8.47 32.09-9.38L32.09-9.38Q32.09-10.37 31.55-10.97Q31.02-11.56 30.09-11.57L30.09-11.57L27.80-11.57ZM43.69-10.64L43.63-7.59L42.55-7.67Q41.00-7.67 40.56-6.69L40.56-6.69L40.56 0L37.27 0L37.27-10.57L40.35-10.57L40.46-9.21Q41.29-10.76 42.77-10.76L42.77-10.76Q43.30-10.76 43.69-10.64L43.69-10.64ZM44.06-4.82L44.05-5.38Q44.05-6.96 44.67-8.20Q45.28-9.43 46.44-10.10Q47.59-10.76 49.14-10.76L49.14-10.76Q51.51-10.76 52.88-9.29Q54.25-7.82 54.25-5.29L54.25-5.29L54.25-5.18Q54.25-2.71 52.88-1.25Q51.50 0.20 49.16 0.20L49.16 0.20Q46.90 0.20 45.54-1.16Q44.17-2.51 44.06-4.82L44.06-4.82ZM47.35-5.77L47.34-5.18Q47.34-3.71 47.80-3.03Q48.26-2.34 49.16-2.34L49.16-2.34Q50.92-2.34 50.96-5.05L50.96-5.05L50.96-5.38Q50.96-8.22 49.14-8.22L49.14-8.22Q47.49-8.22 47.35-5.77L47.35-5.77Z"></path></g></g></svg>